<?xml version="1.0" encoding="UTF-8" standalone="no"?>
<!-- Created with Inkscape (http://www.inkscape.org/) -->
<svg id="svg3543" xmlns:rdf="http://www.w3.org/1999/02/22-rdf-syntax-ns#" xmlns="http://www.w3.org/2000/svg" height="11.789mm" width="51.393mm" version="1.1" xmlns:cc="http://creativecommons.org/ns#" xmlns:dc="http://purl.org/dc/elements/1.1/" viewBox="0 0 182.10115 41.77361">
 <title id="title3638">nanogallery2</title>
 <defs id="defs3545">
  <clipPath id="clipPath3360" clipPathUnits="userSpaceOnUse">
   <path id="path3362" d="m-0.000006104 540h720v-540l-720 0.00012207" clip-rule="evenodd"/>
  </clipPath>
  <clipPath id="clipPath3370" clipPathUnits="userSpaceOnUse">
   <path id="path3372" d="m-0.000003815 540h720v-540l-720 0.00012207" clip-rule="evenodd"/>
  </clipPath>
  <clipPath id="clipPath3380" clipPathUnits="userSpaceOnUse">
   <path id="path3382" d="m-0.000004578 540h720v-540l-720 0.00018311" clip-rule="evenodd"/>
  </clipPath>
  <clipPath id="clipPath3390" clipPathUnits="userSpaceOnUse">
   <path id="path3392" d="m-0.000004578 540h720v-540l-720 0.00012207" clip-rule="evenodd"/>
  </clipPath>
 </defs>
 <metadata id="metadata3548">
  <rdf:RDF>
   <cc:Work rdf:about="">
    <dc:format>image/svg+xml</dc:format>
    <dc:type rdf:resource="http://purl.org/dc/dcmitype/StillImage"/>
    <dc:title>nanogallery2</dc:title>
   </cc:Work>
  </rdf:RDF>
 </metadata>
 <g id="layer1" transform="translate(-126.09 -108.62)">
  <g id="g3356" transform="matrix(1.25 0 0 -1.25 43.259 197.62)">
   <g id="g3358" clip-path="url(#clipPath3360)">
    <path id="path3364" stroke-linejoin="round" d="m80.301 67.855c1.477 1.476 3.87 1.476 5.346 0l10.691-10.691c1.477-1.476 1.477-3.87 0-5.346l-10.691-10.691c-1.476-1.476-3.869-1.476-5.346 0l-10.691 10.691c-1.476 1.476-1.476 3.87 0 5.346l10.691 10.691z" stroke="#55840c" stroke-miterlimit="10" stroke-width="4.5" fill="none"/>
   </g>
  </g>
  <g id="g3366" transform="matrix(1.25 0 0 -1.25 43.259 197.62)">
   <g id="g3368" clip-path="url(#clipPath3370)">
    <path id="path3374" stroke-linejoin="round" d="m94.867 67.855c1.476 1.476 3.869 1.476 5.343 0l10.69-10.691c1.48-1.476 1.48-3.87 0-5.346l-10.69-10.691c-1.474-1.476-3.867-1.476-5.343 0l-10.691 10.691c-1.477 1.476-1.477 3.87 0 5.346l10.691 10.691z" stroke="#72a623" stroke-miterlimit="10" stroke-width="4.5" fill="none"/>
   </g>
  </g>
  <g id="g3376" transform="matrix(1.25 0 0 -1.25 43.259 197.62)">
   <g id="g3378" clip-path="url(#clipPath3380)">
    <path id="path3384" stroke-linejoin="round" d="m109.3 67.855c1.48 1.476 3.87 1.476 5.35 0l10.69-10.691c1.47-1.476 1.47-3.87 0-5.346l-10.69-10.691c-1.48-1.476-3.87-1.476-5.35 0l-10.69 10.691c-1.477 1.476-1.477 3.87 0 5.346l10.69 10.691z" stroke="#b2e16a" stroke-miterlimit="10" stroke-width="4.5" fill="none"/>
   </g>
  </g>
  <g id="g3386" transform="matrix(1.25 0 0 -1.25 43.259 197.62)">
   <g id="g3388" clip-path="url(#clipPath3390)">
    <path id="path3394" stroke-linejoin="round" d="m124.07 67.855c1.47 1.476 3.87 1.476 5.34 0l10.69-10.691c1.48-1.476 1.48-3.87 0-5.346l-10.69-10.691c-1.47-1.476-3.87-1.476-5.34 0l-10.69 10.691c-1.48 1.476-1.48 3.87 0 5.346l10.69 10.691z" stroke="#cff19a" stroke-miterlimit="10" stroke-width="4.5" fill="none"/>
   </g>
  </g>
  <g id="text3396" fill="#fff">
   <path id="path3657" style="" d="m232.51 129.67v3.7725q-0.89088 0.32995-1.7048 0.32995-1.9907 0-3.3766-1.5068-1.3748-1.5068-1.3748-3.6845 0-2.3537 1.6608-3.9705t4.0805-1.6168q1.2868 0 2.4637 0.51693 1.1768 0.51693 1.8478 1.3858 1.1218 1.4408 1.1218 4.1794v3.6075q0 2.9366-1.6718 4.7624-1.6608 1.8368-4.3334 1.8368-0.81389 0-2.0567-0.40695v-3.7395q0.80289 0.43994 1.6278 0.43994 1.1108 0 1.7158-0.7369 0.60492-0.7259 0.60492-2.0897v-4.1244q0-1.7268-1.3968-1.7268-0.59392 0-1.0449 0.46194-0.43995 0.45094-0.43995 1.0449 0 0.62691 0.41795 1.0449 0.42894 0.41794 1.0559 0.41794 0.41794 0 0.80289-0.19797z"/>
   <path id="path3659" style="" d="m245.75 130.08v4.2564q-0.50594 0.088-0.92388 0.088-2.4747 0-4.1244-1.6278-1.6498-1.6278-1.6498-4.0804 0-2.3867 1.6608-4.0475 1.6718-1.6608 4.0585-1.6608 2.6616 0 4.1904 1.5618 1.5398 1.5508 1.5398 4.2454v5.3783h-4.1134v-5.0813q0-0.86888-0.42894-1.3858-0.41795-0.51693-1.1328-0.51693-0.64891 0-1.1218 0.47293-0.47294 0.47294-0.47294 1.1218 0 0.68191 0.42894 1.1218 0.42895 0.43995 1.0889 0.43995 0.53893 0 1.0009-0.28597z"/>
   <path id="path3661" style="" d="m257.01 119.18v15.013h-4.1134v-15.013h4.1134z"/>
   <path id="path3663" style="" d="m263.48 119.18v15.013h-4.1134v-15.013h4.1134z"/>
   <path id="path3665" style="" d="m276.67 129.38h-6.2362q-0.14298-0.47294-0.14298-0.86889 0-0.54992 0.19797-1.0778h2.0897q-0.21998-1.2208-1.3748-1.2208-0.7699 0-1.2538 0.65991-0.48394 0.64892-0.48394 1.6718 0 1.0669 0.46194 1.7268 0.47294 0.65991 1.2318 0.65991 0.61592 0 1.1878-0.61592l2.3427 2.8156q-1.6388 1.2868-3.6405 1.2868-2.4417 0-4.1025-1.6388t-1.6608-4.0585q0-2.4087 1.6718-4.0695 1.6828-1.6608 4.1244-1.6608 2.3867 0 4.0035 1.6278 1.6278 1.6168 1.6278 3.9925 0 0.24197-0.044 0.7699z"/>
   <path id="path3667" style="" d="m284.39 123.12v4.3994q-0.42895-0.24197-0.7809-0.24197-1.1218 0-1.1218 1.7158v5.2023h-4.1134v-5.9942q0-2.3757 1.2978-3.7835 1.2978-1.4188 3.4645-1.4188 0.48394 0 1.2538 0.12098z"/>
   <path id="path3669" style="" d="m287.02 139v-3.5745q0.83589 0.35196 1.4628 0.35196 2.0017 0 2.5957-2.2547-1.0779 0.63791-2.1117 0.63791-1.5288 0-2.5187-1.1328-0.98986-1.1438-0.98986-2.9036v-6.8961h4.1134v5.8952q0 0.97887 0.81389 0.97887 0.7809 0 0.7809-1.0779v-5.7962h4.1134v9.7887q0 2.7386-1.5398 4.4214-1.8368 2.0017-4.4434 2.0017-1.1438 0-2.2767-0.43994z"/>
   <path id="path3671" style="" d="m308.19 129.85v4.3444h-9.7007l4.8174-9.0408 0.16498-0.30796q0.19797-0.36295 0.19797-0.7149 0-0.89089-1.0449-0.89089-0.40694 0-0.7149 0.30796-0.29696 0.29696-0.29696 0.70391 0 0.46194 0.39594 0.83589l-1.9247 3.4315q-1.2098-0.7479-1.8588-1.9027-0.64892-1.1548-0.64892-2.5517 0-2.1667 1.5288-3.7065 1.5288-1.5508 3.6955-1.5508 2.1777 0 3.6955 1.5288 1.5288 1.5288 1.5288 3.7175 0 1.2538-0.56092 2.3317l-1.7818 3.4645h2.5077z"/>
  </g>
  <g id="text3400" fill="#fff">
   <path id="path3674" style="" d="m158.52 132.09h-1.8216v-2.7422q0-0.41887-0.34581-0.41887-0.34094 0-0.34094 0.41887v2.7422h-1.8216v-2.7081q0-0.94976 0.62831-1.5976 0.62831-0.65267 1.5391-0.65267 1.0423 0 1.6706 0.75495 0.49193 0.58934 0.49193 1.6414v2.5619z"/>
   <path id="path3676" style="" d="m174.75 130.27v1.8849q-0.22405 0.039-0.40913 0.039-1.0959 0-1.8265-0.72085-0.73059-0.72085-0.73059-1.807 0-1.0569 0.73546-1.7924 0.74033-0.73546 1.7972-0.73546 1.1787 0 1.8557 0.69162 0.68189 0.68676 0.68189 1.88v2.3817h-1.8216v-2.2502q0-0.38478-0.18995-0.6137-0.18508-0.22891-0.50167-0.22891-0.28737 0-0.49681 0.20943-0.20943 0.20944-0.20943 0.4968 0 0.30198 0.18995 0.49681 0.18996 0.19482 0.48219 0.19482 0.23866 0 0.44323-0.12664z"/>
   <path id="path3678" style="" d="m194.7 132.09h-1.8216v-2.7422q0-0.41887-0.34582-0.41887-0.34094 0-0.34094 0.41887v2.7422h-1.8216v-2.7081q0-0.94976 0.62831-1.5976 0.62831-0.65267 1.5391-0.65267 1.0423 0 1.6706 0.75495 0.49193 0.58934 0.49193 1.6414v2.5619z"/>
   <path id="path3680" style="" d="m210.61 127.14q1.0326 0 1.768 0.74521 0.74033 0.74033 0.74033 1.7778 0 1.052-0.75007 1.7924-0.74521 0.74033-1.8021 0.74033t-1.807-0.74033q-0.75007-0.7452-0.75007-1.7924 0-1.0667 0.75007-1.7924 0.75007-0.7306 1.8508-0.7306zm-0.0487 1.7973q-0.29223 0-0.4968 0.2143-0.20456 0.20944-0.20456 0.51629 0 0.30198 0.20456 0.51628 0.20944 0.21431 0.4968 0.21431 0.29224 0 0.4968-0.21431 0.20944-0.2143 0.20944-0.51628 0-0.30685-0.20457-0.51629-0.20456-0.2143-0.50167-0.2143z"/>
  </g>
 </g>
</svg>
