<?xml version="1.0" encoding="UTF-8" standalone="no"?>
<!-- Created with Inkscape (http://www.inkscape.org/) -->
<svg id="svg3710" xmlns:rdf="http://www.w3.org/1999/02/22-rdf-syntax-ns#" xmlns="http://www.w3.org/2000/svg" height="11.789mm" width="27.227mm" version="1.1" xmlns:cc="http://creativecommons.org/ns#" xmlns:dc="http://purl.org/dc/elements/1.1/" viewBox="0 0 96.474579 41.77361">
 <title id="title3762">nanogallery2</title>
 <defs id="defs3712">
  <clipPath id="clipPath3438" clipPathUnits="userSpaceOnUse">
   <path id="path3440" d="m-0.000006104 540h720v-540l-720 0.00012207" clip-rule="evenodd"/>
  </clipPath>
  <clipPath id="clipPath3428" clipPathUnits="userSpaceOnUse">
   <path id="path3430" d="m-0.000006104 540h720v-540l-720 0.00012207" clip-rule="evenodd"/>
  </clipPath>
  <clipPath id="clipPath3418" clipPathUnits="userSpaceOnUse">
   <path id="path3420" d="m-0.000006104 540h720v-540l-720 0.00012207" clip-rule="evenodd"/>
  </clipPath>
  <clipPath id="clipPath3408" clipPathUnits="userSpaceOnUse">
   <path id="path3410" d="m-0.000006104 540h720v-540l-720 0.00012207" clip-rule="evenodd"/>
  </clipPath>
 </defs>
 <metadata id="metadata3715">
  <rdf:RDF>
   <cc:Work rdf:about="">
    <dc:format>image/svg+xml</dc:format>
    <dc:type rdf:resource="http://purl.org/dc/dcmitype/StillImage"/>
    <dc:title>nanogallery2</dc:title>
   </cc:Work>
  </rdf:RDF>
 </metadata>
 <g id="layer1" transform="translate(-157.48 -165.76)">
  <g id="g3404" transform="matrix(1.25 0 0 -1.25 -226.04 277.96)">
   <g id="g3406" clip-path="url(#clipPath3408)">
    <path id="path3412" stroke-linejoin="round" d="m320.85 86.413c1.47 1.476 3.87 1.476 5.34 0l10.69-10.691c1.48-1.476 1.48-3.87 0-5.346l-10.69-10.691c-1.47-1.476-3.87-1.476-5.34 0l-10.69 10.691c-1.48 1.476-1.48 3.87 0 5.346l10.69 10.691z" stroke="#55840c" stroke-miterlimit="10" stroke-width="4.5" fill="none"/>
   </g>
  </g>
  <g id="g3414" transform="matrix(1.25 0 0 -1.25 -226.04 277.96)">
   <g id="g3416" clip-path="url(#clipPath3418)">
    <path id="path3422" stroke-linejoin="round" d="m335.41 86.413c1.48 1.476 3.87 1.476 5.35 0l10.69-10.691c1.48-1.476 1.48-3.87 0-5.346l-10.69-10.691c-1.48-1.476-3.87-1.476-5.35 0l-10.69 10.691c-1.48 1.476-1.48 3.87 0 5.346l10.69 10.691z" stroke="#72a623" stroke-miterlimit="10" stroke-width="4.5" fill="none"/>
   </g>
  </g>
  <g id="g3424" transform="matrix(1.25 0 0 -1.25 -226.04 277.96)">
   <g id="g3426" clip-path="url(#clipPath3428)">
    <path id="path3432" stroke-linejoin="round" d="m349.85 86.413c1.47 1.476 3.87 1.476 5.34 0l10.69-10.691c1.48-1.476 1.48-3.87 0-5.346l-10.69-10.691c-1.47-1.476-3.87-1.476-5.34 0l-10.69 10.691c-1.48 1.476-1.48 3.87 0 5.346l10.69 10.691z" stroke="#b2e16a" stroke-miterlimit="10" stroke-width="4.5" fill="none"/>
   </g>
  </g>
  <g id="g3434" transform="matrix(1.25 0 0 -1.25 -226.04 277.96)">
   <g id="g3436" clip-path="url(#clipPath3438)">
    <path id="path3442" stroke-linejoin="round" d="m364.61 86.413c1.48 1.476 3.87 1.476 5.35 0l10.69-10.691c1.48-1.476 1.48-3.87 0-5.346l-10.69-10.691c-1.48-1.476-3.87-1.476-5.35 0l-10.69 10.691c-1.47 1.476-1.47 3.87 0 5.346l10.69 10.691z" stroke="#cff19a" stroke-miterlimit="10" stroke-width="4.5" fill="none"/>
   </g>
  </g>
 </g>
</svg>
